<?xml version="1.0" standalone="no"?>
<!DOCTYPE svg PUBLIC "-//W3C//DTD SVG 1.1//EN" "http://www.w3.org/Graphics/SVG/1.1/DTD/svg11.dtd" >
<!--
2013-9-30: Created.
-->
<svg>
<metadata>
Created by iconfont
</metadata>
<defs>

<font id="iconfont" horiz-adv-x="1024" >
  <font-face
    font-family="iconfont"
    font-weight="500"
    font-stretch="normal"
    units-per-em="1024"
    ascent="896"
    descent="-128"
  />
    <missing-glyph />
    
    <glyph glyph-name="jilian" unicode="&#58950;" d="M1077.993989 537.5336199999999a33.974424 33.974424 0 0 0 34.291237-33.672697v-121.550592a33.823561 33.823561 0 0 0-33.672697-33.672698H502.073192a33.793388 33.793388 0 0 0-33.612352 33.672698v27.743768h-327.373445V138.96776499999999h327.373445v27.804113a33.838647 33.838647 0 0 0 33.672698 33.627438H1078.672874a33.778302 33.778302 0 0 0 33.612352-33.627438v-121.671283a33.778302 33.778302 0 0 0-33.687784-33.612352H502.012847a33.793388 33.793388 0 0 0-33.612352 33.612352v27.8192H108.138841a33.099417 33.099417 0 0 0-32.993812 33.054158V680.521893H37.564971A37.564971 37.564971 0 0 0 0 718.041605v140.453769A37.519712 37.519712 0 0 0 37.504626 896h140.453769a37.519712 37.519712 0 0 0 37.519712-37.504626v-140.453769a37.595144 37.595144 0 0 0-37.519712-37.519712h-37.564972v-204.465084h327.463964v27.804114a33.778302 33.778302 0 0 0 33.612352 33.672697z m-1012.609818 214.225942a5.76298 5.76298 0 0 1 5.808239-5.808239h72.414402a5.808239 5.808239 0 0 1 5.808239 5.808239v72.414402a5.747893 5.747893 0 0 1-1.704756 4.103483 5.808239 5.808239 0 0 1-4.103483 1.704756h-72.414402a5.823325 5.823325 0 0 1-5.808239-5.808239zM533.15104 129.88579200000004h0.61854v-47.89911a5.174613 5.174613 0 0 1 5.250044-5.189699h502.118451a5.14444 5.14444 0 0 1 3.696152 1.508633 5.053922 5.053922 0 0 1 1.508634 3.681066v47.89911a5.084095 5.084095 0 0 1-1.508634 3.696152 5.189699 5.189699 0 0 1-3.696152 1.508633H538.340739a5.129354 5.129354 0 0 1-5.189699-5.189699z m513.131475 289.189934v47.959456a5.129354 5.129354 0 0 1-5.189699 5.129353h-502.073192a5.129354 5.129354 0 0 1-5.189699-5.129353v-47.89911a5.114267 5.114267 0 0 1 5.189699-5.189699h502.118451a5.14444 5.14444 0 0 1 3.696152 1.508633 5.038836 5.038836 0 0 1 1.508634 3.681066z m31.681301 476.305734c18.782486 0 34.291237-14.890212 33.672698-33.672697v-121.671283a33.823561 33.823561 0 0 0-33.672698-33.612352H333.257116a33.808474 33.808474 0 0 0-33.687784 33.612352V861.708763A33.86882 33.86882 0 0 0 333.257116 895.38146z m-31.681301-118.457893V824.80759a5.069008 5.069008 0 0 1-1.508633 3.696152 5.14444 5.14444 0 0 1-3.696152 1.508634H370.143202a5.084095 5.084095 0 0 1-3.681065-1.508634 5.14444 5.14444 0 0 1-1.508634-3.696152v-47.884023a5.053922 5.053922 0 0 1 5.189699-5.129354h670.994873a5.129354 5.129354 0 0 1 5.189699 5.129354z m0 0"  horiz-adv-x="1837" />

    
    <glyph glyph-name="sonForm" unicode="&#60809;" d="M898.896724-51.191659999999956L127.854946-51.191659999999956c-59.106166 0-107.192348 48.067762-107.192348 107.150392L20.662599 680.2031420000001c0 59.08263 48.086182 107.150392 107.192348 107.150392L898.896724 787.353534c59.106166 0 107.192348-48.067762 107.192348-107.150392l0-624.24441C1006.089072-3.124920999999972 958.00289-51.191659999999956 898.896724-51.191659999999956zM127.854946 756.654348c-42.178635 0-76.493162-34.296107-76.493162-76.451206l0-624.24441c0-42.155099 34.314527-76.451206 76.493162-76.451206L898.896724-20.492474000000016c42.178635 0 76.493162 34.296107 76.493162 76.451206L975.389886 680.2031420000001c0 42.155099-34.314527 76.451206-76.493162 76.451206L127.854946 756.654348zM898.896724 22.248978999999963L715.379037 22.248978999999963c-18.926048 0-33.750685 14.807241-33.750685 33.708729L681.628352 166.119691c0 18.902512 14.824637 33.708729 33.750685 33.708729L898.896724 199.82842000000005c18.926048 0 33.751708-14.807241 33.751708-33.708729l0-110.160959C932.648432 37.05622000000005 917.822772 22.248978999999963 898.896724 22.248978999999963zM715.379037 169.129234c-1.882883 0-3.051499-1.153266-3.051499-3.009544l0-110.160959c0-1.856277 1.169639-3.009544 3.051499-3.009544L898.896724 52.94918800000005c1.882883 0 3.052522 1.153266 3.052522 3.009544L901.949246 166.119691c0 1.856277-1.170662 3.009544-3.052522 3.009544L715.379037 169.129234zM605.134167 22.248978999999963L421.61648 22.248978999999963c-18.926048 0-33.750685 14.807241-33.750685 33.708729L387.865795 166.119691c0 18.902512 14.824637 33.708729 33.750685 33.708729l183.517687 0c18.926048 0 33.750685-14.807241 33.750685-33.708729l0-110.160959C638.885875 37.05622000000005 624.061238 22.248978999999963 605.134167 22.248978999999963zM421.61648 169.129234c-1.882883 0-3.051499-1.153266-3.051499-3.009544l0-110.160959c0-1.856277 1.169639-3.009544 3.051499-3.009544l183.517687 0c1.882883 0 3.051499 1.153266 3.051499 3.009544L608.185666 166.119691c0 1.856277-1.169639 3.009544-3.051499 3.009544L421.61648 169.129234zM311.372633 22.248978999999963L127.854946 22.248978999999963c-18.926048 0-33.751708 14.807241-33.751708 33.708729L94.103238 166.119691c0 18.902512 14.82566 33.708729 33.751708 33.708729l183.517687 0c18.926048 0 33.751708-14.807241 33.751708-33.708729l0-110.160959C345.124342 37.05622000000005 330.298681 22.248978999999963 311.372633 22.248978999999963zM127.854946 169.129234c-1.882883 0-3.052522-1.153266-3.052522-3.009544l0-110.160959c0-1.856277 1.169639-3.009544 3.052522-3.009544l183.517687 0c1.882883 0 3.052522 1.153266 3.052522 3.009544L314.425156 166.119691c0 1.856277-1.169639 3.009544-3.052522 3.009544L127.854946 169.129234zM898.896724 242.57089699999995L715.379037 242.57089699999995c-18.926048 0-33.750685 14.807241-33.750685 33.708729L681.628352 386.440585c0 18.903535 14.824637 33.709753 33.750685 33.709753L898.896724 420.150338c18.926048 0 33.751708-14.807241 33.751708-33.709753l0-110.160959C932.648432 257.37813800000004 917.822772 242.57089699999995 898.896724 242.57089699999995zM715.379037 389.452175c-1.882883 0-3.051499-1.153266-3.051499-3.010567l0-110.160959c0-1.856277 1.169639-3.009544 3.051499-3.009544L898.896724 273.27110600000003c1.882883 0 3.052522 1.153266 3.052522 3.009544L901.949246 386.440585c0 1.857301-1.170662 3.010567-3.052522 3.010567L715.379037 389.451152zM605.134167 242.57089699999995L421.61648 242.57089699999995c-18.926048 0-33.750685 14.807241-33.750685 33.708729L387.865795 386.440585c0 18.903535 14.824637 33.709753 33.750685 33.709753l183.517687 0c18.926048 0 33.750685-14.807241 33.750685-33.709753l0-110.160959C638.885875 257.37813800000004 624.061238 242.57089699999995 605.134167 242.57089699999995zM421.61648 389.452175c-1.882883 0-3.051499-1.153266-3.051499-3.010567l0-110.160959c0-1.856277 1.169639-3.009544 3.051499-3.009544l183.517687 0c1.882883 0 3.051499 1.153266 3.051499 3.009544L608.185666 386.440585c0 1.857301-1.169639 3.010567-3.051499 3.010567L421.61648 389.451152zM311.372633 242.57089699999995L127.854946 242.57089699999995c-18.926048 0-33.751708 14.807241-33.751708 33.708729L94.103238 386.440585c0 18.903535 14.82566 33.709753 33.751708 33.709753l183.517687 0c18.926048 0 33.751708-14.807241 33.751708-33.709753l0-110.160959C345.124342 257.37813800000004 330.298681 242.57089699999995 311.372633 242.57089699999995zM127.854946 389.452175c-1.882883 0-3.052522-1.153266-3.052522-3.010567l0-110.160959c0-1.856277 1.169639-3.009544 3.052522-3.009544l183.517687 0c1.882883 0 3.052522 1.153266 3.052522 3.009544L314.425156 386.440585c0 1.857301-1.169639 3.010567-3.052522 3.010567L127.854946 389.451152zM898.896724 462.891791L715.379037 462.891791c-18.926048 0-33.750685 14.807241-33.750685 33.709753L681.628352 606.7625029999999c0 18.902512 14.824637 33.709753 33.750685 33.709753L898.896724 640.472256c18.926048 0 33.751708-14.807241 33.751708-33.709753l0-110.160959C932.648432 477.699032 917.822772 462.891791 898.896724 462.891791zM715.379037 609.77307c-1.882883 0-3.051499-1.153266-3.051499-3.010567l0-110.160959c0-1.856277 1.169639-3.010567 3.051499-3.010567L898.896724 493.590977c1.882883 0 3.052522 1.153266 3.052522 3.010567L901.949246 606.7625029999999c0 1.857301-1.170662 3.010567-3.052522 3.010567L715.379037 609.77307zM605.134167 462.891791L421.61648 462.891791c-18.926048 0-33.750685 14.807241-33.750685 33.709753L387.865795 606.7625029999999c0 18.902512 14.824637 33.709753 33.750685 33.709753l183.517687 0c18.926048 0 33.750685-14.807241 33.750685-33.709753l0-110.160959C638.885875 477.699032 624.061238 462.891791 605.134167 462.891791zM421.61648 609.77307c-1.882883 0-3.051499-1.153266-3.051499-3.010567l0-110.160959c0-1.856277 1.169639-3.010567 3.051499-3.010567l183.517687 0c1.882883 0 3.051499 1.153266 3.051499 3.010567L608.185666 606.7625029999999c0 1.857301-1.169639 3.010567-3.051499 3.010567L421.61648 609.77307zM311.372633 462.891791L127.854946 462.891791c-18.926048 0-33.751708 14.807241-33.751708 33.709753L94.103238 606.7625029999999c0 18.902512 14.82566 33.709753 33.751708 33.709753l183.517687 0c18.926048 0 33.751708-14.807241 33.751708-33.709753l0-110.160959C345.124342 477.699032 330.298681 462.891791 311.372633 462.891791zM127.854946 609.77307c-1.882883 0-3.052522-1.153266-3.052522-3.010567l0-110.160959c0-1.856277 1.169639-3.010567 3.052522-3.010567l183.517687 0c1.882883 0 3.052522 1.153266 3.052522 3.010567L314.425156 606.7625029999999c0 1.857301-1.169639 3.010567-3.052522 3.010567L127.854946 609.77307z"  horiz-adv-x="1024" />

    
    <glyph glyph-name="hebinglie" unicode="&#59057;" d="M863.702608 669.95663L688.311782 669.95663c-11.153792 0-20.261017-9.004897-20.261017-20.261017s9.004897-20.261017 20.261017-20.261017l155.232138 0 0-224.917758L180.456081 404.516838 180.456081 629.536924 335.688218 629.536924c11.153792 0 20.261017 9.004897 20.261017 20.261017S346.842011 669.95663 335.688218 669.95663L160.297392 669.95663c-11.153792 0-20.261017-9.004897-20.261017-20.261017l0-530.674928c0-11.153792 9.004897-20.261017 20.261017-20.261017l175.493155 0c11.153792 0 20.261017 9.004897 20.261017 20.261017s-9.004897 20.261017-20.261017 20.261017L180.456081 139.281703 180.456081 364.19946000000004l662.98551 0 0-224.917758L688.41411 139.281703c-11.153792 0-20.261017-9.004897-20.261017-20.261017s9.004897-20.261017 20.261017-20.261017L863.702608 98.75966800000003c11.153792 0 20.261017 9.004897 20.261017 20.261017L883.963625 649.695613C883.963625 660.8494049999999 874.856401 669.95663 863.702608 669.95663zM419.904467 219.71180200000003L460.221845 219.71180200000003 460.221845 98.04336999999998 562.550215 98.04336999999998 562.550215 219.71180200000003 602.867593 219.71180200000003 511.38603 311.09103600000003ZM602.867593 548.288198L562.550215 548.288198 562.550215 669.854302 460.221845 669.854302 460.221845 548.288198 419.904467 548.288198 511.38603 456.908964Z"  horiz-adv-x="1024" />

    
    <glyph glyph-name="hebinghang" unicode="&#58904;" d="M234.496 311.808a25.6 25.6 0 0 1 0-36.352 25.088 25.088 0 0 1 17.92-7.68 26.112 26.112 0 0 1 18.432 7.68l90.112 90.624a24.576 24.576 0 0 1 0 35.84L270.848 492.544a25.6 25.6 0 0 1-36.352-36.352l46.592-46.592h-153.6a25.6 25.6 0 0 1 0-51.2h153.6zM897.536 409.6h-153.6l46.592 46.592a25.6 25.6 0 1 1-36.352 36.352L665.6 401.92a24.576 24.576 0 0 1 0-35.84l90.112-90.624a26.112 26.112 0 0 1 18.432-7.68 25.088 25.088 0 0 1 17.92 7.68 25.6 25.6 0 0 1 0 36.352l-46.592 46.592h153.6a25.6 25.6 0 0 1 0 51.2zM414.72 742.4H220.16a25.6 25.6 0 0 1 0-51.2h194.56a5.632 5.632 0 0 0 5.12-5.12v-604.16a5.632 5.632 0 0 0-5.12-5.12H220.16a25.6 25.6 0 0 1 0-51.2h194.56a56.32 56.32 0 0 1 56.32 56.32V686.08A56.32 56.32 0 0 1 414.72 742.4zM803.84 76.79999999999995h-194.56a5.632 5.632 0 0 0-5.12 5.12V686.08a5.632 5.632 0 0 0 5.12 5.12h194.56a25.6 25.6 0 0 1 0 51.2h-194.56a56.32 56.32 0 0 1-56.32-56.32v-604.16a56.32 56.32 0 0 1 56.32-56.32h194.56a25.6 25.6 0 1 1 0 51.2z"  horiz-adv-x="1024" />

    
    <glyph glyph-name="Columns" unicode="&#58961;" d="M853.333333-59.733333H170.666667c-66.030933 0-102.4 36.369067-102.4 102.4V725.333333c0 66.030933 36.369067 102.4 102.4 102.4h682.666666c66.030933 0 102.4-36.369067 102.4-102.4v-682.666666c0-66.030933-36.369067-102.4-102.4-102.4z m-324.266666 34.133333h324.266666c47.223467 0 68.266667 21.0432 68.266667 68.266667V725.333333c0 47.223467-21.0432 68.266667-68.266667 68.266667H529.066667v-819.2zM170.666667 793.6c-47.223467 0-68.266667-21.0432-68.266667-68.266667v-682.666666c0-47.223467 21.0432-68.266667 68.266667-68.266667h324.266666V793.6H170.666667z"  horiz-adv-x="1024" />

    
    <glyph glyph-name="Row" unicode="&#58965;" d="M853.333333-59.733333H170.666667c-66.030933 0-102.4 36.369067-102.4 102.4V725.333333c0 66.030933 36.369067 102.4 102.4 102.4h682.666666c66.030933 0 102.4-36.369067 102.4-102.4v-682.666666c0-66.030933-36.369067-102.4-102.4-102.4zM102.4 366.933333v-324.266666c0-47.223467 21.0432-68.266667 68.266667-68.266667h682.666666c47.223467 0 68.266667 21.0432 68.266667 68.266667V366.933333H102.4z m0 34.133334h819.2V725.333333c0 47.223467-21.0432 68.266667-68.266667 68.266667H170.666667c-47.223467 0-68.266667-21.0432-68.266667-68.266667v-324.266666z"  horiz-adv-x="1024" />

    
    <glyph glyph-name="trash" unicode="&#58928;" d="M623.666176 638.6944c-15.4624 0-28.023808 12.547072-28.023808 28.023808l0 102.78912c-0.026624 4.611072-3.776512 8.333312-8.400896 8.333312L436.68992 777.84064c-4.611072 0-8.36096-3.72224-8.408064-8.333312l0-95.783936c0-15.475712-12.547072-28.023808-28.023808-28.023808-15.475712 0-28.023808 12.547072-28.023808 28.023808l0 95.783936c0.116736 35.193856 28.735488 63.627264 63.922176 63.504384 0.178176 0 0.356352 0 0.533504 0L587.296768 833.011712c35.192832 0.410624 64.0512-27.804672 64.448512-62.998528 0-0.16384 0.014336-0.32768 0.014336-0.505856l0-102.78912c0-15.475712-12.548096-28.023808-28.023808-28.023808C623.721472 638.6944 623.693824 638.6944 623.666176 638.6944zM686.609408-65.027072l-349.233152 0c-30.589952 0.274432-56.005632 23.645184-58.852352 54.104064l-67.075072 668.541952c-1.54624 15.393792 9.680896 29.131776 25.081856 30.678016 15.40096 1.54624 29.138944-9.673728 30.685184-25.081856l0 0 67.10272-668.801024c0.211968-1.642496 1.40288-2.968576 3.003392-3.365888l349.234176 0c1.518592 0.342016 2.681856 1.559552 2.955264 3.078144l67.158016 669.103104c1.559552 15.407104 15.297536 26.628096 30.692352 25.081856 15.393792-1.54624 26.628096-15.284224 25.081856-30.678016l0 0-67.131392-668.801024C742.396928-41.491456 717.069312-64.726016 686.609408-65.027072zM848.976896 637.038592l-673.953792 0c-15.475712 0-28.023808 12.548096-28.023808 28.023808 0 15.489024 12.548096 28.022784 28.023808 28.022784l673.953792 0c15.490048 0 28.023808-12.53376 28.023808-28.022784C877.000704 649.586688 864.466944 637.038592 848.976896 637.038592z"  horiz-adv-x="1024" />

    
    <glyph glyph-name="clone" unicode="&#60171;" d="M125.629255 233.355001l0 569.087183c0.055259 0.484024 0.923022 1.351787 1.388627 1.407046l569.08616 0c0.485047-0.055259 1.351787-0.923022 1.407046-1.38965l0-83.692121 30.699186 0L728.210273 802.45958c0 17.394159-14.694677 32.087812-32.087812 32.087812L127.016859 834.547393c-17.393135 0-32.087812-14.694677-32.087812-32.087812L94.929046 233.355001c0-17.393135 14.694677-32.086789 32.087812-32.086789l83.692121 0 0 30.699186-83.673701-0.001023C126.551254 232.021633 125.683491 232.888374 125.629255 233.355001zM896.982118 700.640614 327.877539 700.640614c-54.611805 0-99.041714-44.429909-99.041714-99.041714l0-569.104579c0-54.611805 44.429909-99.041714 99.041714-99.041714l569.104579 0c54.611805 0 99.041714 44.429909 99.041714 99.041714L996.023832 601.5989C996.023832 656.210705 951.593923 700.640614 896.982118 700.640614zM965.324646 32.494321c0-37.684274-30.658254-68.342528-68.342528-68.342528L327.877539-35.848207c-37.684274 0-68.342528 30.658254-68.342528 68.342528L259.535011 601.5989c0 37.684274 30.658254 68.342528 68.342528 68.342528l569.104579 0c37.684274 0 68.342528-30.658254 68.342528-68.342528L965.324646 32.494321z"  horiz-adv-x="1024" />

    
    <glyph glyph-name="drag" unicode="&#59592;" d="M406.4 649.6L480 720V512c0-19.2 12.8-32 32-32s32 12.8 32 32V720l73.6-73.6c6.4-3.2 12.8-6.4 22.4-6.4s16 3.2 22.4 9.6c12.8 12.8 12.8 32 0 44.8l-128 128c-3.2 3.2-6.4 6.4-9.6 6.4-6.4 3.2-16 3.2-25.6 0-3.2-3.2-6.4-3.2-9.6-6.4l-128-128c-12.8-12.8-12.8-32 0-44.8s32-12.8 44.8 0zM617.6 118.4L544 44.8V256c0 19.2-12.8 32-32 32s-32-12.8-32-32v-211.2l-73.6 73.6c-12.8 12.8-32 12.8-44.8 0s-12.8-32 0-44.8l128-128c3.2-3.2 6.4-6.4 9.6-6.4 3.2-3.2 9.6-3.2 12.8-3.2s9.6 0 12.8 3.2c3.2 3.2 6.4 3.2 9.6 6.4l128 128c12.8 12.8 12.8 32 0 44.8s-32 12.8-44.8 0zM956.8 371.2c3.2 6.4 3.2 16 0 25.6-3.2 3.2-3.2 6.4-6.4 9.6l-128 128c-12.8 12.8-32 12.8-44.8 0s-12.8-32 0-44.8l73.6-73.6H640c-19.2 0-32-12.8-32-32s12.8-32 32-32h211.2l-73.6-73.6c-12.8-12.8-12.8-32 0-44.8 6.4-6.4 16-9.6 22.4-9.6s16 3.2 22.4 9.6l128 128c3.2 0 6.4 6.4 6.4 9.6zM172.8 352H384c19.2 0 32 12.8 32 32s-12.8 32-32 32H172.8l73.6 73.6c12.8 12.8 12.8 32 0 44.8s-32 12.8-44.8 0l-128-128c-3.2-3.2-6.4-6.4-6.4-9.6-3.2-6.4-3.2-16 0-25.6 3.2-3.2 3.2-6.4 6.4-9.6l128-128c6.4-6.4 12.8-9.6 22.4-9.6s16 3.2 22.4 9.6c12.8 12.8 12.8 32 0 44.8L172.8 352z"  horiz-adv-x="1024" />

    
    <glyph glyph-name="chexiao" unicode="&#59113;" d="M609.206 499.344h-415.702l201.87 199.152c17.787 17.787 17.787 43.185 0 60.973s-41.555 18.641-59.42 0.778l-273.097-266.804c-17.787-17.787-17.787-41.399 0-59.186l273.173-267.115c17.787-17.787 41.555-17.787 59.42 0.078 17.787 17.787 17.787 41.166 0 58.953l-201.948 195.501h415.702c166.219 0 311.155-129.712 311.155-290.029v-41.555c0-23.769 15.069-41.555 38.836-41.555s38.836 17.787 38.836 41.555v41.555c0 207.852-175.073 367.7-388.828 367.7z"  horiz-adv-x="1024" />

    
    <glyph glyph-name="daoru" unicode="&#58913;" d="M924.88192 280.77568v-257.5104c0-33.69472-28.17024-51.33312-58.5728-51.33312H290.42688c-27.66336 0-67.3536-6.48704-92.81536 6.9888-25.22112 13.34784-25.35936 39.86944-25.35936 64.24576V131.6864v149.08928c0 33.01376-51.2 33.01376-51.2 0v-257.5104c0-57.56416 46.73536-100.03456 102.4-102.53312 115.52256-5.18656 232.45824 0 348.07296 0h214.53312c37.08928 0 78.30016-4.66432 114.8416 3.6608 84.72064 19.29728 75.18208 112.26112 75.18208 177.88416v178.49856c0 33.01376-51.2 33.01376-51.2 0zM271.06304 462.57152l259.8912-259.89632c9.86112-9.86624 26.3424-9.86624 36.1984 0l258.90816 258.89792c23.36768 23.36256-12.83584 59.5712-36.1984 36.20352l-258.90816-258.90304h36.1984L307.26656 498.77504c-23.36256 23.36768-59.5712-12.83584-36.20352-36.20352zM522.24 723.99872l1.44896-478.6944c0.1024-33.00864 51.3024-33.01888 51.2 0L573.44 723.99872c-0.1024 33.01376-51.3024 33.024-51.2 0z"  horiz-adv-x="1024" />

    
    <glyph glyph-name="see" unicode="&#59102;" d="M513.2 633.8c-138.1 0-250-111.9-250-250s111.9-250 250-250 250 111.9 250 250-111.9 250-250 250z m138.4-388.4c-37-37-86.1-57.3-138.4-57.3s-101.4 20.4-138.4 57.3-57.3 86.1-57.3 138.4 20.4 101.4 57.3 138.4c37 37 86.1 57.3 138.4 57.3 52.3 0 101.4-20.4 138.4-57.3s57.3-86.1 57.3-138.4c0-52.3-20.3-101.5-57.3-138.4zM512 768h-1.2C191.5 768 0 384 0 384s192-384 512-384 512 384 512 384-192 383-512 384z m331.8-535.5c-46.9-51.2-96.2-91.7-146.5-120.4-29-16.6-58.7-29.4-88.2-38-31.9-9.3-64.6-14.1-97-14.1-32.2 0-64.6 4.7-96.3 13.9-29.3 8.5-58.8 21.1-87.6 37.5-50.1 28.4-99.2 68.5-145.9 119.1-55 59.5-93.8 120-113.6 153.6 19.7 33.6 58.5 94.1 113.3 153.6 46.6 50.6 95.6 90.7 145.5 119.1 28.7 16.3 58.1 28.9 87.4 37.5 31.6 9.2 63.9 13.9 96 13.9h1.1c32.2-0.1 64.7-4.9 96.4-14.1 29.3-8.6 58.8-21.2 87.7-37.6 50.1-28.5 99.2-68.5 146-119.1C897 478 935.9 417.7 955.6 384.1 936 350.8 898 291.7 843.8 232.5z"  horiz-adv-x="1024" />

    
    <glyph glyph-name="Emptytrash" unicode="&#59005;" d="M725.333333-59.733333c-39.816533 0-74.308267 14.318933-102.519466 42.5472A147.234133 147.234133 0 0 0 592.674133 25.6H256a17.066667 17.066667 0 0 0-17.066667 17.066667V537.6h-68.266666a17.066667 17.066667 0 0 0 0 34.133333h68.266666v153.6a17.066667 17.066667 0 0 0 17.066667 17.066667h153.6V810.666667a17.066667 17.066667 0 0 0 17.066667 17.066666h170.666666a17.066667 17.066667 0 0 0 17.066667-17.066666v-68.266667h153.6a17.066667 17.066667 0 0 0 17.066667-17.066667v-153.6h68.266666a17.066667 17.066667 0 1 0 0-34.133333h-68.266666v-319.624533a147.541333 147.541333 0 0 0 42.8032-30.139734C856.081067 159.6416 870.4 125.149867 870.4 85.333333s-14.318933-74.308267-42.5472-102.519466C799.6416-45.4144 765.149867-59.733333 725.333333-59.733333z m-105.0624 108.066133c5.341867-15.104 14.318933-29.0304 26.6752-41.3696C668.8256-14.9504 694.4768-25.6 725.333333-25.6s56.507733 10.6496 78.3872 32.546133C825.617067 28.8256 836.266667 54.4768 836.266667 85.333333s-10.6496 56.507733-32.546134 78.3872c-12.356267 12.373333-26.2656 21.333333-41.386666 26.6752A112.452267 112.452267 0 0 1 725.333333 196.266667c-30.856533 0-56.507733-10.6496-78.3872-32.546134C625.0496 141.841067 614.4 116.189867 614.4 85.333333c0-13.3632 1.962667-25.821867 5.870933-37.000533zM273.066667 59.733333h309.248a156.3136 156.3136 0 0 0-2.048 25.6c0 11.229867 1.1264 22.050133 3.413333 32.4096A16.9984 16.9984 0 0 0 580.266667 128V622.933333h-136.533334v-494.933333a17.066667 17.066667 0 1 0-34.133333 0V622.933333h-136.533333v-563.2z m341.333333 563.2v-444.142933c2.645333 3.089067 5.461333 6.109867 8.413867 9.0624C651.025067 216.081067 685.5168 230.4 725.333333 230.4c8.8064 0 17.3568-0.682667 25.6-2.048V622.933333h-136.533333z m-17.066667 34.133334h153.6v51.2H273.066667v-51.2h324.266666z m-153.6 85.333333h136.533334V793.6h-136.533334v-51.2z m324.266667-675.84h-85.333333a17.066667 17.066667 0 1 0 0 34.133333h85.333333a17.066667 17.066667 0 1 0 0-34.133333z"  horiz-adv-x="1024" />

    
    <glyph glyph-name="json" unicode="&#58894;" d="M742.4 140.544H564.770133c-14.4384 0-26.112-12.475733-26.112-27.869867v-168.618666h28.433067L742.4 135.560533v4.983467zM742.4 196.266667v88.183466c0 15.189333 11.4688 27.477333 25.6 27.477334s25.6-12.288 25.6-27.477334v-160.136533c0-7.2192-2.645333-14.1312-7.338667-19.285333L596.087467-102.7072a24.746667 24.746667 0 0 0-18.261334-8.226133H194.56C129.536-110.933333 76.8-54.306133 76.8 15.547733V752.469333C76.8 822.306133 129.536 878.933333 194.56 878.933333h481.28C740.864 878.933333 793.6 822.306133 793.6 752.452267v-48.930134c0-15.189333-11.4688-27.477333-25.6-27.477333s-25.6 12.288-25.6 27.477333V752.469333c0 39.4752-29.7984 71.492267-66.56 71.492267H194.56c-36.7616 0-66.56-32.017067-66.56-71.509333v-736.887467c0-39.4752 29.7984-71.492267 66.56-71.492267H486.4v168.618667C486.4 158.839467 521.489067 196.266667 564.770133 196.266667H742.4zM289.058133 601.429333h33.3824l-15.581866-153.275733c-2.645333-26.026667-9.437867-45.056-20.4288-57.7536-12.1856-13.329067-29.986133-20.002133-53.674667-20.002133-20.548267 0-35.601067 6.3488-44.868267 19.0464-9.557333 12.6976-13.192533 30.139733-10.939733 52.360533l0.733867 7.304533h33.399466l-0.7168-6.997333c-2.645333-26.0096 6.024533-39.0144 26.282667-39.0144 11.127467 0 19.797333 3.805867 25.668267 11.093333 5.888 7.304533 9.642667 19.0464 11.281066 35.2256l15.4624 152.0128z m144.128 4.437334c23.978667 0 42.257067-5.393067 54.545067-16.503467 13.073067-11.741867 19.473067-30.139733 18.944-54.903467H473.6c-1.4336 13.9776-5.819733 24.132267-12.629333 30.1568-6.775467 6.3488-17.902933 9.198933-32.733867 9.198934-12.8512 0-22.7328-1.911467-30.0032-6.024534-9.045333-4.778667-13.858133-12.6976-14.9504-23.483733-0.9728-9.5232 2.798933-17.4592 11.912533-23.176533 4.027733-2.525867 15.240533-7.287467 33.399467-13.960534 26.709333-9.506133 43.6224-17.134933 51.0976-22.203733 16.503467-11.741867 23.7056-27.938133 21.572267-48.878933-2.048-20.309333-10.837333-36.488533-26.299734-48.2304-15.428267-11.434667-36.3008-17.4592-62.276266-17.4592-25.105067 0-44.253867 5.393067-57.1392 16.196266-15.7696 13.312-23.04 34.269867-21.538134 63.146667h33.109334c0.512-17.134933 4.693333-29.525333 12.8-36.8128 7.338667-6.3488 19.2512-9.8304 36.096-9.8304 14.848 0 27.101867 2.850133 36.215466 8.2432 9.147733 5.717333 14.455467 13.0048 15.428267 22.528 1.211733 12.066133-4.369067 21.589333-16.213333 28.5696-3.771733 2.218667-16.384 7.287467-38.161067 14.916267-24.200533 8.874667-39.253333 15.223467-44.868267 19.029333-14.626133 10.478933-20.7872 25.7024-18.7392 45.704533 2.030933 19.985067 11.0592 35.84 27.630934 47.274667 15.394133 11.093333 33.928533 16.503467 55.893333 16.503467z m207.223467 0c31.112533 0 54.528-11.093333 70.212267-33.621334 14.9504-21.282133 20.650667-49.527467 17.1008-84.4288-3.549867-34.901333-14.9504-62.8224-34.235734-84.087466-20.241067-22.2208-45.909333-33.3312-77.0048-33.3312-31.402667 0-54.784 11.434667-70.212266 33.6384-14.933333 21.589333-20.360533 49.5104-16.878934 83.797333 3.515733 34.577067 14.626133 62.498133 33.962667 84.0704C583.338667 594.773333 609.006933 605.866667 640.392533 605.866667z m-3.242667-32.682667c-21.128533 0-38.1952-7.936-51.5072-23.808-12.680533-15.223467-20.1728-35.5328-22.818133-61.559467-2.6112-25.7024 0.750933-46.011733 10.325333-61.252266 9.847467-15.530667 25.582933-23.466667 46.6944-23.466667 21.128533 0 38.161067 7.611733 51.0976 22.528 12.629333 14.916267 20.445867 35.5328 23.159467 62.190933 2.7136 26.658133-0.8704 47.616-10.4448 62.839467-9.864533 15.223467-25.3952 22.528-46.506667 22.528z m131.84 28.245333h33.3824l84.1216-163.4304h1.143467l16.605867 163.4304h33.672533l-23.04-226.577066h-32.529067L797.354667 540.501333h-1.143467l-16.8448-165.649066H745.984l23.04 226.577066z"  horiz-adv-x="1024" />

    
    <glyph glyph-name="time" unicode="&#59658;" d="M812.36544 402.73162c0-22.533202-18.260899-40.782845-40.782845-40.782845l-234.203066 0.348947c-3.663436-1.075495-7.467065-1.841951-11.489682-1.841951-17.524119 0-32.340569 11.120268-38.116109 26.643823-2.090615 4.920056-3.264347 10.314926-3.264347 16.000416 0 2.101871 0.319272 4.121877 0.618077 6.134721l0.35918 238.295268c0 22.521946 18.261922 40.783869 40.782845 40.783869 22.522969 0 40.782845-18.261922 40.782845-40.783869l-0.298805-203.706495 204.831109-0.319272C794.104541 443.504232 812.36544 425.253566 812.36544 402.73162zM525.828448-45.493891c-95.78453 0-184.14088 30.547737-256.965489 81.735559-17.244756 4.758374-29.990035 20.392446-29.990035 39.149649l-0.35918 3.784186c0 22.521946 18.241456 40.782845 40.763402 40.782845 11.830443 0 22.404266-5.108345 29.850865-13.142322 60.695361-44.268226 135.213541-70.75446 216.102826-70.75446 203.079208 0 367.703593 164.627455 367.703593 367.703593 0 203.080232-164.624385 367.70564-367.703593 367.70564S157.527245 606.845391 157.527245 403.766183c0-56.095599 12.922311-109.046578 35.385928-156.609851l-6.610558-6.612605c14.914688-6.073322 25.449625-20.658506 25.449625-37.745672l0.35918-3.783163c0-22.522969-18.260899-40.782845-40.782845-40.782845-18.600637 0-34.133402 12.546757-39.032992 29.582759C97.22995 251.756093 77.156776 325.087239 77.156776 403.168572c0 247.786433 200.88831 448.663486 448.673719 448.663486 247.785409 0 448.670649-200.8791 448.670649-448.663486C974.501144 155.373952 773.614881-45.493891 525.828448-45.493891z"  horiz-adv-x="1024" />

    
    <glyph glyph-name="table" unicode="&#59517;" d="M0 704l0-704 1024 0L1024 704 0 704zM384 256l0 128 256 0 0-128L384 256zM640 192l0-128L384 64l0 128L640 192zM640 576l0-128L384 448l0 128L640 576zM320 576l0-128L64 448l0 128L320 576zM64 384l256 0 0-128L64 256 64 384zM704 384l256 0 0-128L704 256 704 384zM704 448l0 128 256 0 0-128L704 448zM64 192l256 0 0-128L64 64 64 192zM704 64l0 128 256 0 0-128L704 64z"  horiz-adv-x="1024" />

    
    <glyph glyph-name="zidingyiyemian" unicode="&#59023;" d="M1015.115617 441.99805 872.765841 584.347826c-5.190875 5.190875-12.078768 7.985962-19.365958 7.985962s-14.175083-2.795087-19.365958-7.985962L461.987912 212.301813c-3.294209-3.294209-5.689998-7.387015-6.987717-11.879119l-55.502437-195.855722c-2.695262-9.48333-0.099825-19.665432 6.887892-26.653149 5.091051-5.190875 12.178592-8.085787 19.465783-8.085787 2.395789 0 4.791577 0.299474 7.087541 0.898421L630.791187 24.232404c4.591928 1.297719 8.784558 3.693508 12.178592 7.087541L1015.115617 403.365958c5.190875 5.190875 7.985962 12.078768 7.985962 19.365958C1023.101579 430.019107 1020.206668 436.807175 1015.115617 441.99805zM506.210177 146.717099l70.875414-70.875414L478.558783 49.188536 506.210177 146.717099zM632.38838 110.979918l-90.640671 90.640671L853.399883 513.372587l90.640671-90.640671L632.38838 110.979918zM863.382336 36.011698c-17.668941 0-31.943849-14.274907-31.943849-31.943849 0-37.633847-30.546305-68.180152-68.180152-68.180152L64.786118-64.112303l0 896.124781 489.639306 0 191.862741-193.060636c12.478066-12.478066 32.64262-12.57789 45.220511-0.099825 12.478066 12.478066 12.57789 32.64262 0.099825 45.220511l-210.629752 211.927471L0.898421 896 0.898421-128l762.359914 0c72.77208 0 132.067849 59.195945 132.067849 132.067849C895.326184 21.736791 881.051277 36.011698 863.382336 36.011698zM416.168454 702.240593 160.617664 702.240593c-17.668941 0-31.943849-14.274907-31.943849-31.943849s14.274907-31.943849 31.943849-31.943849l255.55079 0c17.668941 0 31.943849 14.274907 31.943849 31.943849S433.837395 702.240593 416.168454 702.240593zM416.168454 510.5775 160.617664 510.5775c-17.668941 0-31.943849-14.274907-31.943849-31.943849s14.274907-31.943849 31.943849-31.943849l255.55079 0c17.668941 0 31.943849 14.274907 31.943849 31.943849S433.837395 510.5775 416.168454 510.5775zM416.168454 318.914408 160.617664 318.914408c-17.668941 0-31.943849-14.274907-31.943849-31.943849s14.274907-31.943849 31.943849-31.943849l255.55079 0c17.668941 0 31.943849 14.274907 31.943849 31.943849S433.837395 318.914408 416.168454 318.914408z"  horiz-adv-x="1024" />

    
    <glyph glyph-name="radioon" unicode="&#58964;" d="M510.6688-115.5072c-67.4816 0-132.9152 13.2096-194.56 39.2192-59.4944 25.1904-112.9472 61.1328-158.8224 107.008-45.8752 45.8752-81.92 99.328-107.008 158.8224-26.0096 61.6448-39.2192 126.976-39.2192 194.4576s13.2096 132.8128 39.2192 194.4576c25.1904 59.4944 61.1328 112.9472 107.008 158.8224 45.8752 45.8752 99.328 81.92 158.8224 107.008 61.6448 26.0096 126.976 39.2192 194.4576 39.2192 67.3792 0 132.8128-13.2096 194.4576-39.2192 59.4944-25.1904 112.9472-61.1328 158.8224-107.008 45.8752-45.8752 81.92-99.328 107.008-158.8224 26.0096-61.6448 39.2192-126.976 39.2192-194.4576 0-67.4816-13.2096-132.8128-39.3216-194.4576C945.664 130.048 909.6192 76.5952 863.744 30.72c-45.8752-45.8752-99.2256-81.92-158.72-107.008C643.4816-102.2976 578.048-115.5072 510.6688-115.5072 510.6688-115.5072 510.6688-115.5072 510.6688-115.5072M510.5664 840.0896c-61.5424 0-121.344-12.0832-177.5616-35.84-54.272-22.9376-103.1168-55.9104-144.9984-97.792-41.8816-41.8816-74.752-90.624-97.792-144.9984-23.7568-56.2176-35.84-115.9168-35.84-177.5616 0-61.5424 12.0832-121.344 35.84-177.5616 22.9376-54.272 55.9104-103.1168 97.792-144.9984 41.8816-41.8816 90.624-74.752 144.9984-97.792 56.2176-23.7568 115.9168-35.84 177.5616-35.84l0.1024 0c0 0 0 0 0 0 61.5424 0 121.2416 12.0832 177.4592 35.84 54.272 22.9376 103.0144 55.808 144.9984 97.792s74.752 90.7264 97.792 144.9984c23.7568 56.2176 35.84 115.9168 35.84 177.5616 0 61.5424-12.0832 121.344-35.84 177.5616-22.9376 54.272-55.808 103.1168-97.792 144.9984C791.2448 748.4416 742.4 781.312 688.128 804.2496 631.9104 828.0064 572.1088 840.0896 510.5664 840.0896zM510.5664 384m-310.0672 0a302.8 302.8 0 1 0 620.1344 0 302.8 302.8 0 1 0-620.1344 0Z"  horiz-adv-x="1024" />

    
    <glyph glyph-name="table1" unicode="&#59414;" d="M576 320l128 0 0-128-128 0 0 128ZM384 320l128 0 0-128-128 0 0 128ZM128 320l192 0 0-128-192 0 0 128ZM384 512l128 0 0-128-128 0 0 128ZM128 704l192 0 0-128-192 0 0 128ZM576 512l128 0 0-128-128 0 0 128ZM128 512l192 0 0-128-192 0 0 128ZM768 320l128 0 0-128-128 0 0 128ZM768 512l128 0 0-128-128 0 0 128ZM384 704l512 0 0-128-512 0 0 128ZM384 128l128 0 0-128-128 0 0 128ZM128 128l192 0 0-128-192 0 0 128ZM768 128l128 0 0-128-128 0 0 128ZM576 128l128 0 0-128-128 0 0 128Z"  horiz-adv-x="1024" />

    
    <glyph glyph-name="201" unicode="&#59012;" d="M512.896 167.552l-442.88 442.88-63.296-63.296 506.176-506.176 504.832 504.768-63.296 63.296z"  horiz-adv-x="1024" />

    
    <glyph glyph-name="switch-5" unicode="&#59001;" d="M238.933333 418.133333h546.133334c131.754667 0 238.933333 107.178667 238.933333 238.933334S916.821333 896 785.066667 896H238.933333C107.178667 896 0 788.821333 0 657.066667s107.178667-238.933333 238.933333-238.933334z m0 443.733334h546.133334c112.930133 0 204.8-91.869867 204.8-204.8s-91.869867-204.8-204.8-204.8H238.933333C126.0032 452.266667 34.133333 544.136533 34.133333 657.066667S126.0032 861.866667 238.933333 861.866667zM877.226667 331.332267l-0.512 0.187733A237.602133 237.602133 0 0 1 785.066667 349.866667H238.933333c-32.4608 0-63.402667-6.570667-91.648-18.346667l-0.512-0.187733C60.654933 295.202133 0 210.039467 0 110.933333c0-131.754667 107.178667-238.933333 238.933333-238.933333h546.133334c32.4608 0 63.402667 6.570667 91.648 18.346667l0.494933 0.187733C963.345067-73.335467 1024 11.8272 1024 110.933333c0 99.106133-60.654933 184.2688-146.773333 220.398934z m93.576533-134.656C982.920533 170.5472 989.866667 141.568 989.866667 110.933333s-6.946133-59.613867-19.063467-85.742933A16.878933 16.878933 0 0 1 955.733333 8.533333c0-2.7136 0.768-5.188267 1.8944-7.458133-7.168-11.229867-15.377067-21.691733-24.5248-31.2832A16.964267 16.964267 0 0 1 921.6-25.6a17.066667 17.066667 0 0 1-17.066667-17.066667c0-3.7376 1.450667-6.997333 3.4816-9.813333A203.502933 203.502933 0 0 0 785.066667-93.866667a17.066667 17.066667 0 0 1-34.133334 0h-68.266666a17.066667 17.066667 0 0 1-34.133334 0h-68.266666a17.066667 17.066667 0 0 1-34.133334 0h-68.266666a17.066667 17.066667 0 0 1-34.133334 0h-68.266666a17.066667 17.066667 0 0 1-34.133334 0h-68.266666a17.066667 17.066667 0 0 1-34.133334 0c-46.165333 0-88.661333 15.530667-122.948266 41.386667A16.674133 16.674133 0 0 1 119.466667-42.666667a17.066667 17.066667 0 0 1-17.066667 17.066667 16.896 16.896 0 0 1-11.485867-4.608A203.8784 203.8784 0 0 0 34.133333 110.933333c0 30.634667 6.946133 59.613867 19.063467 85.742934A16.878933 16.878933 0 0 1 68.266667 213.333333a16.657067 16.657067 0 0 1-1.8944 7.458134c7.168 11.229867 15.377067 21.691733 24.5248 31.2832 3.054933-2.798933 7.031467-4.608 11.502933-4.608a17.066667 17.066667 0 0 1 17.066667 17.066666 16.674133 16.674133 0 0 1-3.4816 9.813334A203.502933 203.502933 0 0 0 238.933333 315.733333a17.066667 17.066667 0 0 1 34.133334 0h68.266666a17.066667 17.066667 0 0 1 34.133334 0h68.266666a17.066667 17.066667 0 0 1 34.133334 0h68.266666a17.066667 17.066667 0 0 1 34.133334 0h68.266666a17.066667 17.066667 0 0 1 34.133334 0h68.266666a17.066667 17.066667 0 0 1 34.133334 0c46.165333 0 88.661333-15.530667 122.948266-41.386666A16.674133 16.674133 0 0 1 904.533333 264.533333a17.066667 17.066667 0 0 1 17.066667-17.066666 16.896 16.896 0 0 1 11.485867 4.608 206.353067 206.353067 0 0 0 24.5248-31.2832A16.861867 16.861867 0 0 1 955.733333 213.333333c0-8.721067 6.638933-15.633067 15.069867-16.657066zM785.066667 486.4c94.1056 0 170.666667 76.561067 170.666666 170.666667S879.172267 827.733333 785.066667 827.733333 614.4 751.172267 614.4 657.066667s76.561067-170.666667 170.666667-170.666667z m0 307.2c75.281067 0 136.533333-61.252267 136.533333-136.533333s-61.252267-136.533333-136.533333-136.533334-136.533333 61.252267-136.533334 136.533334 61.252267 136.533333 136.533334 136.533333zM191.488-52.8896A16.759467 16.759467 0 0 1 204.8-59.733333a16.64 16.64 0 0 1 7.953067 2.218666c8.5504-1.314133 17.2544-2.218667 26.180266-2.218666a169.745067 169.745067 0 0 1 53.6576 8.772266A16.827733 16.827733 0 0 1 307.2-59.733333a17.066667 17.066667 0 0 1 17.066667 17.066666c0 1.911467-0.512 3.652267-1.0752 5.376a171.52 171.52 0 0 1 74.205866 85.179734A16.861867 16.861867 0 0 1 409.6 42.666667a17.066667 17.066667 0 0 1 0 34.133333c-1.28 0-2.4064-0.4608-3.601067-0.733867a171.383467 171.383467 0 0 1 0 69.7344c1.194667-0.273067 2.321067-0.733867 3.601067-0.733866a17.066667 17.066667 0 0 1 0 34.133333 16.930133 16.930133 0 0 1-12.219733-5.2224 170.837333 170.837333 0 0 1-21.981867 39.0144c0 0.119467 0.068267 0.221867 0.068267 0.341333a16.8448 16.8448 0 0 1-14.370134 16.520534 170.9568 170.9568 0 0 1-37.922133 29.303466A16.657067 16.657067 0 0 1 324.266667 264.533333a17.066667 17.066667 0 0 1-17.066667 17.066667 16.827733 16.827733 0 0 1-14.609067-8.772267A169.745067 169.745067 0 0 1 238.933333 281.6c-8.925867 0-17.629867-0.904533-26.180266-2.218667A16.64 16.64 0 0 1 204.8 281.6a16.759467 16.759467 0 0 1-13.312-6.843733C120.4224 254.122667 68.266667 188.552533 68.266667 110.933333s52.155733-143.189333 123.221333-163.822933zM238.933333 247.466667c75.281067 0 136.533333-61.252267 136.533334-136.533334s-61.252267-136.533333-136.533334-136.533333-136.533333 61.252267-136.533333 136.533333 61.252267 136.533333 136.533333 136.533334zM409.6 264.533333m-17.066667 0a17.066667 17.066667 0 1 1 34.133334 0 17.066667 17.066667 0 1 1-34.133334 0ZM512 264.533333m-17.066667 0a17.066667 17.066667 0 1 1 34.133334 0 17.066667 17.066667 0 1 1-34.133334 0ZM614.4 264.533333m-17.066667 0a17.066667 17.066667 0 1 1 34.133334 0 17.066667 17.066667 0 1 1-34.133334 0ZM716.8 264.533333m-17.066667 0a17.066667 17.066667 0 1 1 34.133334 0 17.066667 17.066667 0 1 1-34.133334 0ZM819.2 264.533333m-17.066667 0a17.066667 17.066667 0 1 1 34.133334 0 17.066667 17.066667 0 1 1-34.133334 0ZM51.2 110.933333m-17.066667 0a17.066667 17.066667 0 1 1 34.133334 0 17.066667 17.066667 0 1 1-34.133334 0ZM460.8 213.333333m-17.066667 0a17.066667 17.066667 0 1 1 34.133334 0 17.066667 17.066667 0 1 1-34.133334 0ZM563.2 213.333333m-17.066667 0a17.066667 17.066667 0 1 1 34.133334 0 17.066667 17.066667 0 1 1-34.133334 0ZM460.8 110.933333m-17.066667 0a17.066667 17.066667 0 1 1 34.133334 0 17.066667 17.066667 0 1 1-34.133334 0ZM563.2 110.933333m-17.066667 0a17.066667 17.066667 0 1 1 34.133334 0 17.066667 17.066667 0 1 1-34.133334 0ZM512 162.133333m-17.066667 0a17.066667 17.066667 0 1 1 34.133334 0 17.066667 17.066667 0 1 1-34.133334 0ZM614.4 162.133333m-17.066667 0a17.066667 17.066667 0 1 1 34.133334 0 17.066667 17.066667 0 1 1-34.133334 0ZM512 59.733333m-17.066667 0a17.066667 17.066667 0 1 1 34.133334 0 17.066667 17.066667 0 1 1-34.133334 0ZM614.4 59.733333m-17.066667 0a17.066667 17.066667 0 1 1 34.133334 0 17.066667 17.066667 0 1 1-34.133334 0ZM665.6 213.333333m-17.066667 0a17.066667 17.066667 0 1 1 34.133334 0 17.066667 17.066667 0 1 1-34.133334 0ZM768 213.333333m-17.066667 0a17.066667 17.066667 0 1 1 34.133334 0 17.066667 17.066667 0 1 1-34.133334 0ZM665.6 110.933333m-17.066667 0a17.066667 17.066667 0 1 1 34.133334 0 17.066667 17.066667 0 1 1-34.133334 0ZM768 110.933333m-17.066667 0a17.066667 17.066667 0 1 1 34.133334 0 17.066667 17.066667 0 1 1-34.133334 0ZM716.8 162.133333m-17.066667 0a17.066667 17.066667 0 1 1 34.133334 0 17.066667 17.066667 0 1 1-34.133334 0ZM819.2 162.133333m-17.066667 0a17.066667 17.066667 0 1 1 34.133334 0 17.066667 17.066667 0 1 1-34.133334 0ZM716.8 59.733333m-17.066667 0a17.066667 17.066667 0 1 1 34.133334 0 17.066667 17.066667 0 1 1-34.133334 0ZM819.2 59.733333m-17.066667 0a17.066667 17.066667 0 1 1 34.133334 0 17.066667 17.066667 0 1 1-34.133334 0ZM870.4 213.333333m-17.066667 0a17.066667 17.066667 0 1 1 34.133334 0 17.066667 17.066667 0 1 1-34.133334 0ZM870.4 110.933333m-17.066667 0a17.066667 17.066667 0 1 1 34.133334 0 17.066667 17.066667 0 1 1-34.133334 0ZM972.8 110.933333m-17.066667 0a17.066667 17.066667 0 1 1 34.133334 0 17.066667 17.066667 0 1 1-34.133334 0ZM460.8 8.533333m-17.066667 0a17.066667 17.066667 0 1 1 34.133334 0 17.066667 17.066667 0 1 1-34.133334 0ZM563.2 8.533333m-17.066667 0a17.066667 17.066667 0 1 1 34.133334 0 17.066667 17.066667 0 1 1-34.133334 0ZM665.6 8.533333m-17.066667 0a17.066667 17.066667 0 1 1 34.133334 0 17.066667 17.066667 0 1 1-34.133334 0ZM768 8.533333m-17.066667 0a17.066667 17.066667 0 1 1 34.133334 0 17.066667 17.066667 0 1 1-34.133334 0ZM870.4 8.533333m-17.066667 0a17.066667 17.066667 0 1 1 34.133334 0 17.066667 17.066667 0 1 1-34.133334 0ZM921.6 162.133333m-17.066667 0a17.066667 17.066667 0 1 1 34.133334 0 17.066667 17.066667 0 1 1-34.133334 0ZM921.6 59.733333m-17.066667 0a17.066667 17.066667 0 1 1 34.133334 0 17.066667 17.066667 0 1 1-34.133334 0ZM409.6-42.666667m-17.066667 0a17.066667 17.066667 0 1 1 34.133334 0 17.066667 17.066667 0 1 1-34.133334 0ZM512-42.666667m-17.066667 0a17.066667 17.066667 0 1 1 34.133334 0 17.066667 17.066667 0 1 1-34.133334 0ZM614.4-42.666667m-17.066667 0a17.066667 17.066667 0 1 1 34.133334 0 17.066667 17.066667 0 1 1-34.133334 0ZM716.8-42.666667m-17.066667 0a17.066667 17.066667 0 1 1 34.133334 0 17.066667 17.066667 0 1 1-34.133334 0ZM819.2-42.666667m-17.066667 0a17.066667 17.066667 0 1 1 34.133334 0 17.066667 17.066667 0 1 1-34.133334 0Z"  horiz-adv-x="1024" />

    
    <glyph glyph-name="color" unicode="&#58881;" d="M954.757 604.527c-3.61 3.685-8.041 5.583-13.168 5.641-12.515 0.141-26.509-10.942-36.036-20.255l-340.912-331.177c-12.501-12.229-58.516-86.966-60.468-90.143l-7.452-12.121 12.135 7.428c3.217 1.968 78.963 48.374 91.438 60.569l340.911 331.178c15.151 14.815 26.671 35.436 13.552 48.879v0zM741.987 501.522c0-27.609-22.407-50.015-50.015-50.015-27.613 0-50.021 22.406-50.021 50.015 0 27.61 22.408 50.018 50.021 50.018 27.608 0 50.015-22.408 50.015-50.018v0zM216.812 326.469c-27.61 0-50.016 22.403-50.016 50.012 0 27.612 22.406 50.020 50.016 50.020 27.608 0 50.017-22.408 50.017-50.020 0-27.609-22.409-50.012-50.017-50.012v0zM291.838 501.522c0 27.61 22.408 50.018 50.015 50.018 27.61 0 50.018-22.408 50.018-50.018 0-27.609-22.407-50.015-50.018-50.015-27.609 0-50.015 22.382-50.015 50.015v0zM466.896 551.54c0 27.609 22.406 50.015 50.015 50.015 27.612 0 50.019-22.406 50.019-50.015 0-27.609-22.408-50.018-50.019-50.018-27.609 0-50.015 22.385-50.015 50.018v0zM853.74 381.916c-22.989-148.967-158.732-299.942-351.947-299.942-36.782 0-75.999 7.275-107.598 19.959-33.607 13.49-48.851 29.354-51.907 39.693-1.594 5.398-3.092 11.296-4.68 17.542-4.65 18.302-9.922 39.045-20.252 56.259-18.376 30.618-44.815 37.045-63.76 37.045-7.166 0-14.798-0.914-22.675-2.712-12.865-2.936-25.363-4.424-37.141-4.424-25.123 0-67.464 6.665-68.765 51.308-6.59 227.942 180.734 351.748 369.298 373.326 13.337 1.525 27.603 2.296 42.403 2.296 53.124 0 111.543-10.001 152.463-26.099 9.248-3.638 14.375-6.016 39.204-18.184 25.653-12.57 46.348-30.432 62.898-47.642l30.158 53.075c-18.027 17.013-40.334 34.407-67.102 47.525-24.89 12.197-31.893 15.514-43.565 20.106-47.339 18.623-114.033 30.194-174.053 30.194-17.027 0-33.545-0.901-49.102-2.678-115.514-13.22-220.687-59.057-296.143-129.075-85.507-79.342-128.872-184.654-125.405-304.555 1.005-34.47 15.117-63.017 40.81-82.556 22.381-17.020 52.431-26.014 86.903-26.014 16.187 0 33.097 1.985 50.268 5.903 3.582 0.818 6.794 1.232 9.548 1.232 11.469 0 16.99-10.044 26.853-48.854 1.654-6.509 3.365-13.241 5.281-19.73 9.434-31.912 39.343-58.784 86.495-77.711 38.319-15.382 85.544-24.203 129.567-24.203 54.104 0 106.474 10.135 155.659 30.123 46.241 18.793 88.502 45.763 125.607 80.165 35.744 33.141 65.271 71.791 87.757 114.884 22.526 43.163 36.888 88.666 42.691 135.269 0.262 2.117 0.509 4.321 0.732 6.548l0.148 1.469v0.057c0.222 2.336 0.404 4.695 0.571 7.065l-61.218-16.661z"  horiz-adv-x="1024" />

    
    <glyph glyph-name="check-box-outline" unicode="&#58942;" d="M337.066667 465.066667l-59.733334-59.733334L469.333333 213.333333 896 640l-59.733333 59.733333-366.933334-366.933333-132.266666 132.266667zM810.666667 85.333333H213.333333V682.666667h426.666667V768H213.333333c-46.933333 0-85.333333-38.4-85.333333-85.333333v-597.333334c0-46.933333 38.4-85.333333 85.333333-85.333333h597.333334c46.933333 0 85.333333 38.4 85.333333 85.333333v341.333334h-85.333333v-341.333334z"  horiz-adv-x="1024" />

    
    <glyph glyph-name="counter" unicode="&#59095;" d="M170.666667 725.333333h682.666666a85.333333 85.333333 0 0 0 85.333334-85.333333v-512a85.333333 85.333333 0 0 0-85.333334-85.333333H170.666667a85.333333 85.333333 0 0 0-85.333334 85.333333V640a85.333333 85.333333 0 0 0 85.333334 85.333333m0-85.333333v-512h298.666666V640H170.666667m682.666666-512V640h-52.906666c10.24-23.04 8.106667-45.653333 8.106666-48.213333-2.986667-28.586667-23.04-58.453333-30.293333-69.12l-99.413333-108.8 141.653333 0.853333 0.426667-52.053333-221.866667 1.28-1.706667 42.666666s130.133333 137.813333 136.533334 150.186667c5.973333 11.946667 30.293333 83.2-29.866667 83.2-52.48-2.133333-46.506667-55.466667-46.506667-55.466667l-65.706666-0.426666s0.426667 28.16 16.213333 55.893333H554.666667v-512h110.08l-0.426667 36.693333 41.386667 0.426667s38.826667 6.826667 39.253333 44.8c1.706667 42.666667-34.56 42.666667-40.96 42.666667-5.546667 0-45.653333-2.133333-45.653333-37.12h-64.853334s1.706667 87.893333 110.506667 87.893333c110.933333 0 104.96-86.186667 104.96-86.186667s1.706667-53.333333-47.36-73.386666l22.186667-15.786667H853.333333M380.586667 213.333333h-64v247.466667l-76.8-23.893333V489.386667l133.973333 47.786666h6.826667V213.333333z"  horiz-adv-x="1024" />

    
    <glyph glyph-name="shangebuju" unicode="&#59091;" d="M921.6 314.368c0-12.288-8.192-20.48-20.48-20.48s-20.48 8.192-20.48 20.48V691.2c0 34.816-26.624 61.44-61.44 61.44h-614.4c-34.816 0-61.44-26.624-61.44-61.44v-614.4c0-34.816 26.624-61.44 61.44-61.44h614.4c34.816 0 61.44 26.624 61.44 61.44v90.112c0 12.288 8.192 20.48 20.48 20.48s20.48-8.192 20.48-20.48v-90.112c0-57.344-45.056-102.4-102.4-102.4h-614.4c-57.344 0-102.4 45.056-102.4 102.4v614.4c0 57.344 45.056 102.4 102.4 102.4h614.4c57.344 0 102.4-45.056 102.4-102.4v-376.832z m-430.08 315.392c0 12.288 8.192 20.48 20.48 20.48s20.48-8.192 20.48-20.48v-491.52c0-12.288-8.192-20.48-20.48-20.48s-20.48 8.192-20.48 20.48v491.52z m-204.8 0c0 12.288 8.192 20.48 20.48 20.48s20.48-8.192 20.48-20.48v-491.52c0-12.288-8.192-20.48-20.48-20.48s-20.48 8.192-20.48 20.48v491.52z m409.6 0c0 12.288 8.192 20.48 20.48 20.48s20.48-8.192 20.48-20.48v-491.52c0-12.288-8.192-20.48-20.48-20.48s-20.48 8.192-20.48 20.48v491.52z"  horiz-adv-x="1024" />

    
    <glyph glyph-name="pingfen" unicode="&#58944;" d="M765.3632-39.8592c-4.1728 0-8.3712 1.024-12.1856 3.072l-253.1072 136.9344-262.4-135.0144a25.4976 25.4976 0 0 0-27.4432 2.6112 25.5232 25.5232 0 0 0-9.1904 25.984l64.128 275.1232-206.976 192.5888c-7.3216 6.8096-10.0096 17.2288-6.8864 26.7008s11.4688 16.3072 21.376 17.4592l293.2736 34.0224 133.4784 254.5408c4.5312 8.6528 13.3888 14.4128 23.3728 13.696a25.6 25.6 0 0 0 22.6048-14.9504l116.0704-254.5408 290.0736-36.224a25.6 25.6 0 0 0 13.6192-44.7232l-220.4416-191.5648 45.0816-270.9248a25.6 25.6 0 0 0-23.936-34.7392l-0.512-0.0512z m-264.96 194.56c4.1984 0 8.3968-1.024 12.1856-3.072l218.9312-118.4512-39.6544 238.3872a25.6 25.6 0 0 0 8.448 23.5264l187.9808 163.328-247.3472 30.8992a25.5488 25.5488 0 0 0-20.1216 14.7712l-100.3264 220.0064-115.5072-220.2368a25.6 25.6 0 0 0-19.7376-13.5424l-251.6224-29.184 177.2544-164.9152c6.7072-6.2464 9.5744-15.616 7.5008-24.5504l-54.9376-235.6736 225.2032 115.8912a26.112 26.112 0 0 0 11.7504 2.816z"  horiz-adv-x="1024" />

    
    <glyph glyph-name="HTML" unicode="&#58903;" d="M354.40128 896c-87.04 0-157.44-70.55872-157.44-157.59872v-275.68128H78.72c-21.6576 0-39.36256-17.69984-39.36256-39.36256v-236.31872c0-21.6576 17.69984-39.35744 39.36256-39.35744h118.24128v-118.08256c0-87.04 70.4-157.59872 157.44-157.59872h472.63744c87.04 0 157.59872 70.55872 157.59872 157.59872V580.9664c0 41.74848-38.9888 81.93024-107.52 149.27872l-29.11744 29.12256L818.87744 788.48C751.5392 857.0112 711.39328 896 669.59872 896H354.4064z m0-78.72h287.20128c28.35456-7.0912 27.99616-42.1376 27.99616-76.8v-120.16128c0-21.6576 17.69984-39.35744 39.36256-39.35744h118.07744c39.38816 0 78.87872 0.0256 78.87872-39.36256v-512c0-43.32032-35.55328-78.87872-78.87872-78.87872H354.4064c-43.32544 0-78.72 35.5584-78.72 78.87872v118.08256h393.91744c21.66272 0 39.36256 17.69472 39.36256 39.35744V423.35744c0 21.66272-17.69984 39.36256-39.36256 39.36256H275.68128V738.40128c0 43.32032 35.39456 78.87872 78.72 78.87872zM75.03872 402.40128h22.08256v-73.92256H176.7936V402.40128h23.04v-175.68256h-23.04V308.3264H97.1264v-81.60256h-22.08256V402.40128z m151.68 0h121.92256v-20.16256h-49.92v-155.52H276.6336v155.52h-49.92v20.16256z m148.80256 0h32.64l49.92-143.04256h0.95744l48.96256 143.04256h33.59744v-175.68256h-22.07744v106.56256c0 10.88 0.31744 26.55744 0.95744 47.03744h-0.95744l-52.80256-153.6h-19.2l-52.79744 153.6h-0.96256c1.28-22.4 1.92-38.71744 1.92-48.95744v-104.64256h-20.15744V402.40128z m214.07744 0h22.08256v-155.52h69.12v-20.16256h-91.20256V402.40128z"  horiz-adv-x="1024" />

    
    <glyph glyph-name="wenzi" unicode="&#58996;" d="M512-128c-28.16 0-51.2 23.04-51.2 51.2V844.8c0 28.16 23.04 51.2 51.2 51.2s51.2-23.04 51.2-51.2v-921.6c0-28.16-23.04-51.2-51.2-51.2zM0 844.8C0 872.96 23.04 896 51.2 896h921.6c28.16 0 51.2-23.04 51.2-51.2s-23.04-51.2-51.2-51.2H51.2C23.04 793.6 0 816.64 0 844.8z"  horiz-adv-x="1024" />

    
    <glyph glyph-name="textarea" unicode="&#58927;" d="M118.784 117.76h778.24V650.24h-778.24v-532.48zM77.824 691.2h860.16v-614.4H77.824V691.2z m778.24-409.6l-122.88-122.88h122.88V281.6z m-661.504 256v-204.8c0-12.288 8.192-20.48 20.48-20.48s20.48 8.192 20.48 20.48V537.6c0 12.288-8.192 20.48-20.48 20.48s-20.48-8.192-20.48-20.48z"  horiz-adv-x="1024" />

    
    <glyph glyph-name="huakuai-" unicode="&#58886;" d="M944.7424 465.1008h-387.072v44.4416c0 47.3088-38.5024 86.016-86.016 86.016H261.5296c-47.3088 0-86.016-38.5024-86.016-86.016v-44.4416h-96.256C36.0448 465.1008 0.6144 429.8752 0.6144 386.4576c0-43.2128 35.2256-78.6432 78.6432-78.6432h96.4608v-49.5616c0-47.3088 38.5024-86.016 86.016-86.016h210.3296c47.3088 0 86.016 38.5024 86.016 86.016v49.5616h387.072c43.2128 0 78.6432 35.2256 78.6432 78.6432-0.4096 43.4176-35.6352 78.6432-79.0528 78.6432zM505.4464 258.4576c0-18.6368-15.1552-33.5872-33.5872-33.5872H261.5296c-18.6368 0-33.5872 15.1552-33.5872 33.5872v49.5616h0.2048v157.0816h-0.2048v44.4416c0 18.6368 15.1552 33.5872 33.5872 33.5872h210.3296c18.6368 0 33.5872-15.1552 33.5872-33.5872v-251.0848z"  horiz-adv-x="1024" />

    
    <glyph glyph-name="gongdanguanli-gongda" unicode="&#59157;" d="M942.84 491.18h2.36a15 15 0 0 1 15 15V771.84a60 60 0 0 1-60 60H125.34a60 60 0 0 1-60-60V-3a60 60 0 0 1 60-60h750a84.61 84.61 0 0 1 60.94 25.84c1 1 1.88 2 2.79 3 0.9 1 1.77 2.07 2.62 3.13v0.06c0.85 1.06 1.67 2.14 2.47 3.25 0.79 1.11 1.56 2.24 2.3 3.38 0.75 1.15 1.46 2.32 2.15 3.51 0.69 1.2 1.36 2.41 2 3.64l0.9 1.58a10.57 10.57 0 0 1 0.65 1.41l0.28 0.78a77 77 0 0 1 1.64 3.86 84.61 84.61 0 0 1 6 31.23V249.25L858 351.42a84.85 84.85 0 0 1-120 0l-66.89-66.88a7.62 7.62 0 0 0-10.8 0L478.53 466.33a84.87 84.87 0 0 1-120 0L110.74 218.56a7.64 7.64 0 0 0-13 5.4V774.48a25 25 0 0 0 25 25h780.1a25 25 0 0 0 25-25v-268.3a15 15 0 0 1 15-15zM694 261.66L751.35 319a66 66 0 0 0 93.34 0l80.92-80.92a7.65 7.65 0 0 0 2.23-5.4v-197.34a7.59 7.59 0 0 0-13-5.36L694 250.85a7.65 7.65 0 0 0 0 10.81zM99.94 162l271.91 271.9a66 66 0 0 0 93.34 0l177.65-177.65 22.88-22.88 238.1-238.09a7.62 7.62 0 0 0-0.53-11.29 65.69 65.69 0 0 0-41.45-14.66H122.7a25 25 0 0 0-25 25V156.59a7.64 7.64 0 0 0 2.24 5.41z m658.98 482.09c-40.09 39.37-105.16 38.76-144.53-1.33A102.21 102.21 0 0 1 737.28 482l0.06-0.06A15.87 15.87 0 0 1 715 504.49a72.2 72.2 0 1 0 39 38.93 15.86 15.86 0 0 1 22.54-22.33l-0.06 0.05a102.24 102.24 0 0 1-17.56 122.95z"  horiz-adv-x="1024" />

    
    <glyph glyph-name="zidingyi" unicode="&#58910;" d="M832-32H192a32 32 0 0 0-32 32V768a32 32 0 0 0 32 32h512a33.28 33.28 0 0 0 23.68-10.24l128-138.88a32.64 32.64 0 0 0 8.32-21.76V512a32 32 0 0 0-64 0V616.96L689.92 736H224v-704h576v256a32 32 0 0 0 64 0V0a32 32 0 0 0-32-32zM576 544H320a32 32 0 0 0 0 64h256a32 32 0 0 0 0-64zM576 352H320a32 32 0 0 0 0 64h256a32 32 0 0 0 0-64zM448 96a31.36 31.36 0 0 0-26.24 13.44 32 32 0 0 0 7.68 44.8l448 320a32 32 0 0 0 37.12-52.48l-448-320a33.28 33.28 0 0 0-18.56-5.76z"  horiz-adv-x="1024" />

    
    <glyph glyph-name="date" unicode="&#58911;" d="M453.228 114.328H170.319V486.82h650.457c11.686 0 21.16 9.473 21.16 21.16V689.71c0 11.686-9.474 21.16-21.16 21.16H660.945v35.972c0 11.686-9.474 21.16-21.16 21.16-11.688 0-21.16-9.474-21.16-21.16v-35.972H356.247v35.972c0 11.686-9.473 21.16-21.16 21.16s-21.16-9.474-21.16-21.16v-35.972H149.16c-11.687 0-21.16-9.474-21.16-21.16V105.56c0-18.5 14.822-33.55 33.04-33.55H453.23c11.686 0 21.16 9.472 21.16 21.16 0 11.686-9.475 21.16-21.161 21.16zM170.319 668.55h143.609v-35.971c0-11.687 9.473-21.16 21.16-21.16s21.159 9.472 21.159 21.16V668.55h262.377v-35.971c0-11.687 9.472-21.16 21.16-21.16 11.686 0 21.16 9.472 21.16 21.16V668.55h138.672v-139.412H170.319V668.55zM690.5 412.9c-113.837 0-206.45-92.613-206.45-206.453C484.05 92.612 576.663 0 690.5 0s206.45 92.613 206.45 206.447c0 113.84-92.611 206.453-206.45 206.453z m0-370.58c-90.5 0-164.13 73.628-164.13 164.131s73.628 164.132 164.13 164.132c90.503 0 164.133-73.628 164.133-164.132S781.002 42.32 690.5 42.32zM390.104 255.184H246.218c-11.687 0-21.16-9.472-21.16-21.16 0-11.685 9.473-21.158 21.16-21.158h143.885c11.686 0 21.16 9.473 21.16 21.158-0.002 11.688-9.475 21.16-21.16 21.16z m0 119.489H246.218c-11.687 0-21.16-9.473-21.16-21.158 0-11.688 9.473-21.16 21.16-21.16h143.885c11.686 0 21.16 9.472 21.16 21.16-0.002 11.683-9.475 21.158-21.16 21.158z m413.071-147.067H711.66V278.39c0 11.687-9.472 21.16-21.159 21.16s-21.16-9.473-21.16-21.16v-71.943c0-11.685 9.474-21.158 21.16-21.158h112.673c11.687 0 21.16 9.473 21.16 21.158 0.001 11.688-9.473 21.16-21.16 21.16z"  horiz-adv-x="1024" />

    
    <glyph glyph-name="fengexian" unicode="&#58936;" d="M908.8 496.64H112A97.28 97.28 0 0 0 14.72 593.92V798.08a32.64 32.64 0 0 0 64 0v-204.16a32 32 0 0 1 32-32H908.8a32 32 0 0 1 32 32V798.08a32.64 32.64 0 0 0 64 0v-204.16a97.92 97.92 0 0 0-96-97.28zM973.44-46.08a32.64 32.64 0 0 0-32.64 32.64V192a32 32 0 0 1-32 32H112a32 32 0 0 1-32-32v-204.16a32.64 32.64 0 0 0-64 0V192a97.28 97.28 0 0 0 96 96H908.8a97.92 97.92 0 0 0 97.28-96v-204.16a32.64 32.64 0 0 0-32.64-33.92zM864.64 357.12L155.52 362.24a33.28 33.28 0 0 0-32 33.28 32 32 0 0 0 32.64 32l708.48-5.12a33.92 33.92 0 0 0 32.64-33.28 32 32 0 0 0-32.64-32z"  horiz-adv-x="1024" />

    
    <glyph glyph-name="tabye" unicode="&#58941;" d="M908.8-109.44H115.2a101.76 101.76 0 0 0-101.12 101.76V785.28A101.76 101.76 0 0 0 115.2 887.04h296.96a32.64 32.64 0 0 0 32-32V633.6a32 32 0 0 0-32-32 32 32 0 0 0-32 32v192H115.2a37.76 37.76 0 0 1-37.12-37.76v-795.52a37.76 37.76 0 0 1 37.12-37.76h793.6a37.76 37.76 0 0 1 37.12 37.76V628.48a32 32 0 0 0 32 32 32 32 0 0 0 32-32v-636.16a101.76 101.76 0 0 0-101.12-101.76zM977.92 596.48a32.64 32.64 0 0 0-32 32V715.52a37.12 37.12 0 0 1-37.12 37.76H421.12a32 32 0 0 0-32 32 32 32 0 0 0 32 32h487.68a101.76 101.76 0 0 0 101.12-101.76v-87.04a32 32 0 0 0-32-32zM977.92 596.48H64a32 32 0 0 0-32 32 32 32 0 0 0 32 32h913.92a32 32 0 0 0 32-32 32 32 0 0 0-32-32zM699.52 596.48a32 32 0 0 0-32 32V785.28a32 32 0 0 0 64 0v-156.8a32 32 0 0 0-32-32z"  horiz-adv-x="1024" />

    
    <glyph glyph-name="input" unicode="&#59133;" d="M85.333333 725.333333v-682.666666h853.333334V725.333333H85.333333zM0 810.666667h1024v-853.333334H0V810.666667z m298.666667-640h42.666666v-42.666667H213.333333v42.666667h42.666667V597.333333H213.333333V640h128v-42.666667H298.666667v-426.666666z"  horiz-adv-x="1024" />

    
    <glyph glyph-name="ziyuan" unicode="&#58899;" d="M852.64067393-66h-681.36651826A109.44449737 109.44449737 0 0 0 62 43.35932606999995v681.36651826A109.44449737 109.44449737 0 0 0 171.27415566 834h170.34162891a24.01816992 24.01816992 0 0 0 20.5261664-11.49805987L491.34607754 612.55588154h446.46541084a24.10334033 24.10334033 0 0 0 24.18851162-24.10334033v-545.09321514a109.44449737 109.44449737 0 0 0-109.35932607-109.35932607z m-681.36651826 851.70814805a61.06747412 61.06747412 0 0 1-60.98230372-60.98230372v-681.36651826a61.06747412 61.06747412 0 0 1 60.98230372-61.06747412h681.36651826a61.06747412 61.06747412 0 0 1 61.06747412 61.06747412V564.2640295900001H477.80391817a24.18851162 24.18851162 0 0 0-20.52616641 11.41288945L327.90328349 785.70814805zM937.81148838 564.2640295900001a24.18851162 24.18851162 0 0 0-24.10334033 24.18851163V676.26365068a61.06747412 61.06747412 0 0 1-61.06747412 60.98230372H371.25522881a24.18851162 24.18851162 0 1 0 0 48.29185195h481.38544512a109.44449737 109.44449737 0 0 0 109.35932607-109.27415567v-87.81110947a24.18851162 24.18851162 0 0 0-24.18851162-24.18851162z"  horiz-adv-x="1024" />

    
    <glyph glyph-name="bianji" unicode="&#58880;" d="M280.868123-128l-10.149022 0.314136A154.651753 154.651753 0 0 0 126.21637 26.651753v618.607011l0.314136 10.149021A154.651753 154.651753 0 0 0 280.868123 799.910516h309.303505v-61.860701H280.868123l-8.904558-0.434958a92.791052 92.791052 0 0 1-83.886494-92.356093v-618.607011l0.434958-8.904558A92.791052 92.791052 0 0 1 280.868123-66.139299h494.885608l8.904558 0.434958a92.778969 92.778969 0 0 1 83.886494 92.356094v371.164206h61.860701v-371.164206l-0.314136-10.149022a154.651753 154.651753 0 0 0-154.337617-144.502731z m-16.528406 421.184383v61.860701h185.582103v-61.860701z m0-123.721402v61.860701h494.885608v-61.860701z m0-124.446333v61.860701h494.885608v-61.860701zM823.164159 144.307907l99.218765 590.818024-57.293641 57.34197a24.526801 24.526801 0 0 1-35.195356 0l-45.054405-45.114816 95.195403-95.195403 42.40841 47.821221a24.526801 24.526801 0 0 1 0 35.195356zM494.239213 450.905006v-92.887709h92.899791l268.98531 271.631305-92.899791 92.936038z m328.05503-72.360105"  horiz-adv-x="1024" />

    
    <glyph glyph-name="fenge" unicode="&#58887;" d="M764.99 126.92c-11.47 0-20.76 9.3-20.76 20.76v83.3c0 18.36-13.59 31.69-32.31 31.69H312.08c-18.72 0-32.3-13.32-32.3-31.69v-83.3c0-11.46-9.29-20.76-20.76-20.76s-20.76 9.3-20.76 20.76v83.3c0 41.05 32.43 73.2 73.82 73.2h399.84c41.4 0 73.82-32.15 73.82-73.2v-83.3c0-11.46-9.29-20.76-20.75-20.76zM711.92 463.82H312.08c-41.39 0-73.82 32.15-73.82 73.2v83.3c0 11.46 9.29 20.76 20.76 20.76s20.76-9.3 20.76-20.76v-83.3c0-18.36 13.59-31.69 32.3-31.69h399.84c18.72 0 32.31 13.32 32.31 31.69v83.3c0 11.46 9.29 20.76 20.76 20.76 11.47 0 20.76-9.3 20.76-20.76v-83.3c-0.01-41.05-32.43-73.2-73.83-73.2zM761.9 363.24H262.1c-11.47 0-20.76 9.3-20.76 20.76s9.29 20.76 20.76 20.76h499.8c11.47 0 20.76-9.3 20.76-20.76-0.01-11.46-9.3-20.76-20.76-20.76z"  horiz-adv-x="1024" />

    


  </font>
</defs>
</svg>
